<?xml version="1.0" encoding="UTF-8"?>
<svg version="1.1" xmlns="http://www.w3.org/2000/svg" width="96" height="96">
<path d="M0 0 C9.7263858 4.00498239 14.14907674 17.89510393 18 27 C18.36480469 27.81855469 18.72960937 28.63710938 19.10546875 29.48046875 C22.7115474 39.04588864 22.83713108 53.07631921 19.5625 62.75 C17.00080473 67.90083727 12.80039794 71.89957435 8 75 C5.525 75.495 5.525 75.495 3 76 C3 79.96 3 83.92 3 88 C1.68 88 0.36 88 -1 88 C-1 84.04 -1 80.08 -1 76 C-2.2375 75.7215625 -2.2375 75.7215625 -3.5 75.4375 C-9.6733348 72.90202321 -14.48822957 68.84672089 -17.5 62.8125 C-22.62194472 47.74525454 -18.73961656 31.78669654 -12.09765625 17.98828125 C-8.77573184 11.35569866 -5.21315968 5.34348867 0 0 Z M0 51 C0 58.92 0 66.84 0 75 C0.66 75 1.32 75 2 75 C2 67.08 2 59.16 2 51 C1.34 51 0.68 51 0 51 Z " fill="#679F37" transform="translate(47,4)"/>
</svg>
