<svg fill="none" height="15" viewBox="0 0 15 15" width="15" xmlns="http://www.w3.org/2000/svg"><path clip-rule="evenodd" d="m8 1.5c0-.21735-.14042-.40981-.34741-.47614-.20699-.066336-.43312.00865-.55945.18553l-5 7c-.10887.1524-.12342.35287-.03772.51941.0857.16653.25729.2712.44458.2712h4.5v4.5c0 .2174.14043.4098.34741.4762.20699.0663.43312-.0087.55946-.1856l5.00003-6.99998c.1088-.1524.1234-.35287.0377-.51941-.0857-.16653-.2573-.27121-.4446-.27121h-4.5zm0 5.5v4.9398l3.5284-4.9398zm-1 1v-4.93976l-3.5284 4.93976z" fill="#151515" fill-rule="evenodd"/></svg>